<?xml version="1.0" encoding="UTF-8"?>
<svg version="1.1" xmlns="http://www.w3.org/2000/svg" width="500" height="500">
<path d="M0 0 C165 0 330 0 500 0 C500 165 500 330 500 500 C335 500 170 500 0 500 C0 335 0 170 0 0 Z " fill="#FEF8F8" transform="translate(0,0)"/>
<path d="M0 0 C1.17949219 0.3403125 2.35898437 0.680625 3.57421875 1.03125 C16.49954471 5.16735431 26.4065938 12.179234 33.18359375 24.078125 C34 26 34 26 34 29 C25.75218584 30.44269613 17.50124576 31.63442604 9.1875 32.625 C7.56811523 32.82609375 7.56811523 32.82609375 5.91601562 33.03125 C-5.31419066 34.38080269 -5.31419066 34.38080269 -10 34 C-11.5625 31.6875 -11.5625 31.6875 -13 29 C-19.63504033 24.85309979 -26.42071324 25.24867637 -34 26 C-37.58515404 27.10969054 -40.12093629 28.57376398 -42.1484375 31.86328125 C-43.96602061 36.42391409 -43.67763332 41.30591669 -41.875 45.8125 C-38.32550741 49.95357469 -36.21734411 51.73391871 -30.77734375 52.38671875 C-23.43814051 52.61435179 -18.09310612 52.21830424 -12 48 C-10.79289759 45.94162987 -10.79289759 45.94162987 -10 44 C4.71683399 44.73711258 19.35387748 46.43198426 34 48 C33.06943036 54.24970571 31.03781904 57.26155483 27 62 C26.51789063 62.60070312 26.03578125 63.20140625 25.5390625 63.8203125 C16.45405167 74.1043603 0.38653336 79.48284985 -13.09277344 80.34936523 C-16.56921627 80.48153225 -20.03861993 80.47381445 -23.51660156 80.41162109 C-25.63135014 80.3748897 -27.74433842 80.37060551 -29.859375 80.37109375 C-48.28480543 80.27780551 -66.44700778 77.53077493 -80.03125 63.97265625 C-87.12149641 55.66565146 -89.77091655 45.98704123 -89.3828125 35.171875 C-88.0884903 24.44749108 -83.03075896 16.13659003 -74.8125 9.3125 C-64.96849681 2.13389967 -54.79191043 -0.20452393 -43 -2 C-41.90300781 -2.185625 -40.80601562 -2.37125 -39.67578125 -2.5625 C-26.4479572 -4.13690626 -12.79102782 -3.83576167 0 0 Z " fill="#191818" transform="translate(409,197)"/>
<path d="M0 0 C1.19109375 0.35191406 2.3821875 0.70382813 3.609375 1.06640625 C16.45525991 5.24269716 27.09176731 12.14785652 33.4375 24.375 C35 28 35 28 35 30 C30.82332933 30.4106744 26.64648395 30.81951454 22.46948242 31.22680664 C21.05472206 31.36499998 19.64000678 31.5036559 18.2253418 31.64282227 C14.80673818 31.97897889 11.38778691 32.30894183 7.96728516 32.62524414 C5.37128461 32.87046635 2.77697895 33.13454327 0.18505859 33.41967773 C-0.97558105 33.53641846 -2.1362207 33.65315918 -3.33203125 33.7734375 C-4.86887573 33.94045166 -4.86887573 33.94045166 -6.43676758 34.11083984 C-9 34 -9 34 -10.72924805 32.80712891 C-12 31.1875 -12 31.1875 -14 28 C-18.07291649 25.78309609 -21.85519745 25.67114605 -26.4375 25.625 C-28.35369141 25.58246094 -28.35369141 25.58246094 -30.30859375 25.5390625 C-35.48808427 26.1858137 -38.61386272 28.29043069 -41.875 32.3125 C-43.80120799 36.91399686 -43.51864395 40.53050882 -41.875 45.1875 C-39.62210235 48.56684648 -37.86929942 50.74566667 -34 52 C-26.61138095 52.78847374 -19.41772031 53.04595411 -13 49 C-12.42636719 48.13761719 -11.85273438 47.27523437 -11.26171875 46.38671875 C-9 44 -9 44 -5.83984375 43.625 C-4.55207031 43.74875 -3.26429688 43.8725 -1.9375 44 C-1.2266626 44.06179443 -0.5158252 44.12358887 0.21655273 44.18725586 C2.8152528 44.42551736 5.40640613 44.71138361 8 45 C10.3749969 45.25133135 12.74999711 45.50263145 15.125 45.75390625 C21.7541561 46.46770154 28.37810103 47.22194334 35 48 C31.64971594 59.06074642 24.84801295 66.19091894 15 72 C1.47859467 78.99383035 -11.11876596 80.37556613 -26.25 80.3125 C-26.93154144 80.31100952 -27.61308289 80.30951904 -28.3152771 80.3079834 C-38.49587521 80.26795229 -48.17980565 79.86422335 -58 77 C-58.9178125 76.73316406 -59.835625 76.46632813 -60.78125 76.19140625 C-71.19287506 72.57625866 -79.94074978 65.84283616 -85 56 C-85.53753906 54.95714844 -86.07507813 53.91429687 -86.62890625 52.83984375 C-88.50887731 48.33672746 -88.47748778 43.94534555 -88.4375 39.125 C-88.45748047 38.27808594 -88.47746094 37.43117187 -88.49804688 36.55859375 C-88.49075015 27.02907041 -84.52293798 18.88923687 -78 12 C-58.37795351 -5.12922752 -24.14688027 -7.26156182 0 0 Z " fill="#191818" transform="translate(276,197)"/>
<path d="M0 0 C14.85 0 29.7 0 45 0 C45.0825 7.3425 45.165 14.685 45.25 22.25 C45.28641602 24.54227539 45.32283203 26.83455078 45.36035156 29.19628906 C45.50302592 44.5218318 44.37442059 56.08384154 33.4453125 67.64453125 C21.32553667 79.09742946 3.41495651 81.69690132 -12.55810547 81.52148438 C-14.86663562 81.50007756 -17.17203335 81.52138368 -19.48046875 81.546875 C-36.12582172 81.57932251 -53.36125782 78.33961909 -66 66.625 C-71.7775231 60.25822703 -75.17573976 53.35622165 -75.0625 44.75 C-75.05347656 43.85796875 -75.04445312 42.9659375 -75.03515625 42.046875 C-75.02355469 41.37140625 -75.01195312 40.6959375 -75 40 C-67.19285906 38.03270682 -59.31294857 37.07256002 -51.33178711 36.14013672 C-49.04289405 35.8727093 -46.75481473 35.59902495 -44.46679688 35.32421875 C-43.01045906 35.15068548 -41.55408028 34.97749568 -40.09765625 34.8046875 C-39.07273827 34.68285599 -39.07273827 34.68285599 -38.02711487 34.55856323 C-33.23646678 34 -33.23646678 34 -31 34 C-30.94392578 34.97839844 -30.94392578 34.97839844 -30.88671875 35.9765625 C-30.49042666 41.24491612 -30.05601467 45.52512137 -27 50 C-21.58465179 53.95991431 -16.46708546 53.63093517 -10 53 C-6.07726446 51.76124141 -4.61555828 50.94174759 -2.37963867 47.52099609 C-0.55411672 42.86205475 -0.52198246 38.75118528 -0.48828125 33.7890625 C-0.47164429 32.93014404 -0.45500732 32.07122559 -0.43786621 31.1862793 C-0.38034036 27.9994314 -0.34788247 24.81217066 -0.3125 21.625 C-0.209375 14.48875 -0.10625 7.3525 0 0 Z " fill="#181717" transform="translate(132,196)"/>
<path d="M0 0 C0.12375 1.3921875 0.12375 1.3921875 0.25 2.8125 C0.70257552 6.08509879 0.70257552 6.08509879 3.0625 7.875 C4.0215625 8.431875 4.0215625 8.431875 5 9 C4.68619894 11.90265983 4.43052594 13.55291537 2.375 15.6875 C-0.62937703 17.34781362 -3.6987016 18.09579822 -7 19 C-7.83919398 16.73117913 -8.67151724 14.46022973 -9.5 12.1875 C-9.73847656 11.54490234 -9.97695313 10.90230469 -10.22265625 10.24023438 C-11.27068746 7.35066261 -12 5.09923939 -12 2 C-8.09971775 -0.60018816 -4.52565431 -0.15085514 0 0 Z " fill="#262525" transform="translate(381,167)"/>
<path d="M0 0 C0.99 0 1.98 0 3 0 C3.33 4.62 3.66 9.24 4 14 C5.65 14 7.3 14 9 14 C9.66 9.71 10.32 5.42 11 1 C11.99 1 12.98 1 14 1 C14.61548983 11.71978116 14.61548983 11.71978116 12.4375 16.25 C9.05915558 18.67547804 7.067687 18.65373541 3 18 C0.5625 16.5 0.5625 16.5 -1 14 C-1.39279434 9.12935018 -0.96008383 4.80041914 0 0 Z " fill="#2A2828" transform="translate(398,163)"/>
<path d="M0 0 C0.99 0 1.98 0 3 0 C4.60546875 1.96875 4.60546875 1.96875 6.1875 4.5 C6.71730469 5.3353125 7.24710937 6.170625 7.79296875 7.03125 C8.19128906 7.6809375 8.58960938 8.330625 9 9 C8.67 9.66 8.34 10.32 8 11 C3.05 11 -1.9 11 -7 11 C-5.02 13.97 -5.02 13.97 -3 17 C-3 17.66 -3 18.32 -3 19 C-5.8842454 18.65514457 -6.8207818 18.21744593 -8.703125 15.93359375 C-9.21359375 15.10988281 -9.7240625 14.28617188 -10.25 13.4375 C-11.03117187 12.19806641 -11.03117187 12.19806641 -11.828125 10.93359375 C-12.21484375 10.29550781 -12.6015625 9.65742188 -13 9 C-11.00383446 7.00383446 -7.18298037 7.59016573 -4.4375 7.4375 C-3.37112305 7.37272461 -3.37112305 7.37272461 -2.28320312 7.30664062 C-0.52238088 7.20028223 1.2387832 7.09961154 3 7 C2.505 6.401875 2.01 5.80375 1.5 5.1875 C0 3 0 3 0 0 Z " fill="#272525" transform="translate(450,188)"/>
<path d="M0 0 C4.19360449 0.67097672 7.40334352 2.8558394 11 5 C11 5.99 11 6.98 11 8 C9.21046815 8.83790789 7.41830305 9.67019396 5.625 10.5 C4.62726563 10.9640625 3.62953125 11.428125 2.6015625 11.90625 C0 13 0 13 -2 13 C-0.06745228 15.0245738 1.63158688 16.42105792 4 18 C3.67 18.99 3.34 19.98 3 21 C-0.3 19.35 -3.6 17.7 -7 16 C-7 14.68 -7 13.36 -7 12 C-3.04 10.02 0.92 8.04 5 6 C3.35 5.01 1.7 4.02 0 3 C0 2.01 0 1.02 0 0 Z " fill="#292828" transform="translate(428,170)"/>
<path d="M0 0 C1.65 0 3.3 0 5 0 C6.125 5.625 6.125 5.625 5 9 C3.68 8.67 2.36 8.34 1 8 C1.66 6.35 2.32 4.7 3 3 C1.68 3 0.36 3 -1 3 C-0.67 2.01 -0.34 1.02 0 0 Z " fill="#201F1F" transform="translate(376,167)"/>
<path d="M0 0 C0 1.32 0 2.64 0 4 C-1.98 4.66 -3.96 5.32 -6 6 C-6.33 4.35 -6.66 2.7 -7 1 C-4 0 -4 0 0 0 Z " fill="#E5DFDF" transform="translate(382,176)"/>
<path d="M0 0 C1.2065625 0.0309375 1.2065625 0.0309375 2.4375 0.0625 C2.1075 1.3825 1.7775 2.7025 1.4375 4.0625 C0.1175 4.3925 -1.2025 4.7225 -2.5625 5.0625 C-3.125 3.125 -3.125 3.125 -3.5625 1.0625 C-2.5625 0.0625 -2.5625 0.0625 0 0 Z " fill="#EAE5E5" transform="translate(376.5625,169.9375)"/>
</svg>
